<svg id="visual" viewBox="0 0 900 600" width="900" height="600" xmlns="http://www.w3.org/2000/svg" xmlns:xlink="http://www.w3.org/1999/xlink" version="1.1"><rect x="0" y="0" width="900" height="600" fill="#ffffff"></rect><defs><linearGradient id="grad1_0" x1="33.3%" y1="0%" x2="100%" y2="100%"><stop offset="20%" stop-color="#ffffff" stop-opacity="1"></stop><stop offset="80%" stop-color="#ffffff" stop-opacity="1"></stop></linearGradient></defs><defs><linearGradient id="grad2_0" x1="0%" y1="0%" x2="66.7%" y2="100%"><stop offset="20%" stop-color="#ffffff" stop-opacity="1"></stop><stop offset="80%" stop-color="#ffffff" stop-opacity="1"></stop></linearGradient></defs><g transform="translate(900, 0)"><path d="M0 189.3C-21.6 180.1 -43.3 170.9 -67.7 163.5C-92.2 156.1 -119.4 150.6 -133.8 133.8C-148.3 117.1 -150 89.2 -157.1 65.1C-164.2 40.9 -176.7 20.4 -189.3 0L0 0Z" fill="#3eb2ff"></path></g><g transform="translate(0, 600)"><path d="M0 -189.3C23.6 -181.1 47.2 -172.9 67 -161.7C86.7 -150.4 102.5 -136 121.6 -121.6C140.7 -107.2 163.1 -92.7 174.9 -72.4C186.7 -52.2 188 -26.1 189.3 0L0 0Z" fill="#3eb2ff"></path></g></svg>