<svg id="visual" viewBox="0 0 900 200" width="900" height="200" xmlns="http://www.w3.org/2000/svg" xmlns:xlink="http://www.w3.org/1999/xlink" version="1.1"><rect x="0" y="0" width="900" height="200" fill="#ffffff"></rect><path d="M0 124L18.8 121.5C37.7 119 75.3 114 112.8 106.2C150.3 98.3 187.7 87.7 225.2 82.3C262.7 77 300.3 77 337.8 79.3C375.3 81.7 412.7 86.3 450.2 93C487.7 99.7 525.3 108.3 562.8 111.3C600.3 114.3 637.7 111.7 675.2 106.3C712.7 101 750.3 93 787.8 95.5C825.3 98 862.7 111 881.3 117.5L900 124L900 0L881.3 0C862.7 0 825.3 0 787.8 0C750.3 0 712.7 0 675.2 0C637.7 0 600.3 0 562.8 0C525.3 0 487.7 0 450.2 0C412.7 0 375.3 0 337.8 0C300.3 0 262.7 0 225.2 0C187.7 0 150.3 0 112.8 0C75.3 0 37.7 0 18.8 0L0 0Z" fill="#0099ff" stroke-linecap="round" stroke-linejoin="miter"></path></svg>